<svg width="1781" height="56" viewBox="0 0 1781 56" fill="none" xmlns="http://www.w3.org/2000/svg">
<rect x="1.5" y="1.5" width="53" height="53" stroke="white" stroke-width="3"/>
<path d="M77.9403 39.384C76.4256 39.384 75.0283 39.1067 73.7483 38.552C72.4896 37.976 71.4549 37.1653 70.6442 36.12L73.5243 32.664C74.1429 33.4747 74.7936 34.0933 75.4763 34.52C76.1589 34.9253 76.8949 35.128 77.6843 35.128C79.7963 35.128 80.8523 33.8907 80.8523 31.416V20.76H72.9803V16.6H86.0043V31.128C86.0043 33.9013 85.3216 35.9707 83.9563 37.336C82.5909 38.7013 80.5856 39.384 77.9403 39.384ZM99.3168 39.256C97.3541 39.256 95.6261 38.872 94.1328 38.104C92.6608 37.336 91.5194 36.2907 90.7088 34.968C89.8981 33.624 89.4928 32.0987 89.4928 30.392C89.4928 28.664 89.8874 27.1387 90.6768 25.816C91.4874 24.472 92.5861 23.4267 93.9728 22.68C95.3594 21.912 96.9274 21.528 98.6768 21.528C100.362 21.528 101.877 21.8907 103.221 22.616C104.586 23.32 105.663 24.344 106.453 25.688C107.242 27.0107 107.637 28.6 107.637 30.456C107.637 30.648 107.626 30.872 107.605 31.128C107.583 31.3627 107.562 31.5867 107.541 31.8H93.5568V28.888H104.917L102.997 29.752C102.997 28.856 102.815 28.0773 102.453 27.416C102.09 26.7547 101.589 26.2427 100.949 25.88C100.309 25.496 99.5621 25.304 98.7088 25.304C97.8554 25.304 97.0981 25.496 96.4368 25.88C95.7968 26.2427 95.2954 26.7653 94.9328 27.448C94.5701 28.1093 94.3888 28.8987 94.3888 29.816V30.584C94.3888 31.5227 94.5914 32.3547 94.9968 33.08C95.4234 33.784 96.0101 34.328 96.7568 34.712C97.5248 35.0747 98.4208 35.256 99.4448 35.256C100.362 35.256 101.162 35.1173 101.845 34.84C102.549 34.5627 103.189 34.1467 103.765 33.592L106.421 36.472C105.631 37.368 104.639 38.0613 103.445 38.552C102.25 39.0213 100.874 39.256 99.3168 39.256ZM121.052 39V35.64L120.732 34.904V28.888C120.732 27.8213 120.401 26.9893 119.74 26.392C119.1 25.7947 118.108 25.496 116.764 25.496C115.846 25.496 114.94 25.6453 114.044 25.944C113.169 26.2213 112.422 26.6053 111.804 27.096L110.012 23.608C110.95 22.9467 112.081 22.4347 113.404 22.072C114.726 21.7093 116.07 21.528 117.436 21.528C120.06 21.528 122.097 22.1467 123.548 23.384C124.998 24.6213 125.724 26.552 125.724 29.176V39H121.052ZM115.804 39.256C114.46 39.256 113.308 39.032 112.348 38.584C111.388 38.1147 110.652 37.4853 110.14 36.696C109.628 35.9067 109.372 35.0213 109.372 34.04C109.372 33.016 109.617 32.12 110.108 31.352C110.62 30.584 111.42 29.9867 112.508 29.56C113.596 29.112 115.014 28.888 116.764 28.888H121.34V31.8H117.308C116.134 31.8 115.324 31.992 114.876 32.376C114.449 32.76 114.236 33.24 114.236 33.816C114.236 34.456 114.481 34.968 114.972 35.352C115.484 35.7147 116.177 35.896 117.052 35.896C117.884 35.896 118.63 35.704 119.292 35.32C119.953 34.9147 120.433 34.328 120.732 33.56L121.5 35.864C121.137 36.9733 120.476 37.816 119.516 38.392C118.556 38.968 117.318 39.256 115.804 39.256ZM140.706 21.528C142.071 21.528 143.287 21.8053 144.354 22.36C145.442 22.8933 146.295 23.7253 146.914 24.856C147.532 25.9653 147.842 27.3947 147.842 29.144V39H142.85V29.912C142.85 28.5253 142.54 27.5013 141.922 26.84C141.324 26.1787 140.471 25.848 139.362 25.848C138.572 25.848 137.858 26.0187 137.218 26.36C136.599 26.68 136.108 27.1813 135.746 27.864C135.404 28.5467 135.234 29.4213 135.234 30.488V39H130.242V21.784H135.01V26.552L134.114 25.112C134.732 23.96 135.618 23.0747 136.77 22.456C137.922 21.8373 139.234 21.528 140.706 21.528ZM158.159 39.256C156.687 39.256 155.268 39.0853 153.903 38.744C152.559 38.3813 151.492 37.9333 150.703 37.4L152.367 33.816C153.156 34.3067 154.084 34.712 155.151 35.032C156.239 35.3307 157.305 35.48 158.351 35.48C159.503 35.48 160.313 35.3413 160.783 35.064C161.273 34.7867 161.519 34.4027 161.519 33.912C161.519 33.5067 161.327 33.208 160.943 33.016C160.58 32.8027 160.089 32.6427 159.47 32.536C158.852 32.4293 158.169 32.3227 157.423 32.216C156.697 32.1093 155.961 31.9707 155.215 31.8C154.468 31.608 153.785 31.3307 153.167 30.968C152.548 30.6053 152.047 30.1147 151.663 29.496C151.3 28.8773 151.118 28.0773 151.118 27.096C151.118 26.008 151.428 25.048 152.047 24.216C152.687 23.384 153.604 22.7333 154.799 22.264C155.993 21.7733 157.423 21.528 159.087 21.528C160.26 21.528 161.455 21.656 162.671 21.912C163.887 22.168 164.9 22.5413 165.711 23.032L164.047 26.584C163.215 26.0933 162.372 25.7627 161.519 25.592C160.687 25.4 159.876 25.304 159.087 25.304C157.977 25.304 157.167 25.4533 156.655 25.752C156.143 26.0507 155.887 26.4347 155.887 26.904C155.887 27.3307 156.068 27.6507 156.431 27.864C156.815 28.0773 157.316 28.248 157.935 28.376C158.553 28.504 159.225 28.6213 159.951 28.728C160.697 28.8133 161.444 28.952 162.191 29.144C162.937 29.336 163.609 29.6133 164.207 29.976C164.825 30.3173 165.327 30.7973 165.711 31.416C166.095 32.0133 166.287 32.8027 166.287 33.784C166.287 34.8507 165.967 35.8 165.327 36.632C164.687 37.4427 163.759 38.0827 162.543 38.552C161.348 39.0213 159.887 39.256 158.159 39.256ZM184.157 39L176.829 16.6H182.205L188.573 36.44H185.885L192.541 16.6H197.341L203.741 36.44H201.149L207.677 16.6H212.637L205.309 39H199.741L194.077 21.592H195.549L189.725 39H184.157ZM222.442 39.256C220.479 39.256 218.751 38.872 217.258 38.104C215.786 37.336 214.644 36.2907 213.834 34.968C213.023 33.624 212.618 32.0987 212.618 30.392C212.618 28.664 213.012 27.1387 213.802 25.816C214.612 24.472 215.711 23.4267 217.098 22.68C218.484 21.912 220.052 21.528 221.802 21.528C223.487 21.528 225.002 21.8907 226.346 22.616C227.711 23.32 228.788 24.344 229.578 25.688C230.367 27.0107 230.762 28.6 230.762 30.456C230.762 30.648 230.751 30.872 230.73 31.128C230.708 31.3627 230.687 31.5867 230.666 31.8H216.682V28.888H228.042L226.122 29.752C226.122 28.856 225.94 28.0773 225.578 27.416C225.215 26.7547 224.714 26.2427 224.074 25.88C223.434 25.496 222.687 25.304 221.834 25.304C220.98 25.304 220.223 25.496 219.562 25.88C218.922 26.2427 218.42 26.7653 218.058 27.448C217.695 28.1093 217.514 28.8987 217.514 29.816V30.584C217.514 31.5227 217.716 32.3547 218.122 33.08C218.548 33.784 219.135 34.328 219.882 34.712C220.65 35.0747 221.546 35.256 222.57 35.256C223.487 35.256 224.287 35.1173 224.97 34.84C225.674 34.5627 226.314 34.1467 226.89 33.592L229.546 36.472C228.756 37.368 227.764 38.0613 226.57 38.552C225.375 39.0213 223.999 39.256 222.442 39.256ZM244.177 39V35.64L243.857 34.904V28.888C243.857 27.8213 243.526 26.9893 242.865 26.392C242.225 25.7947 241.233 25.496 239.889 25.496C238.971 25.496 238.065 25.6453 237.169 25.944C236.294 26.2213 235.547 26.6053 234.929 27.096L233.137 23.608C234.075 22.9467 235.206 22.4347 236.529 22.072C237.851 21.7093 239.195 21.528 240.561 21.528C243.185 21.528 245.222 22.1467 246.673 23.384C248.123 24.6213 248.849 26.552 248.849 29.176V39H244.177ZM238.929 39.256C237.585 39.256 236.433 39.032 235.473 38.584C234.513 38.1147 233.777 37.4853 233.265 36.696C232.753 35.9067 232.497 35.0213 232.497 34.04C232.497 33.016 232.742 32.12 233.233 31.352C233.745 30.584 234.545 29.9867 235.633 29.56C236.721 29.112 238.139 28.888 239.889 28.888H244.465V31.8H240.433C239.259 31.8 238.449 31.992 238.001 32.376C237.574 32.76 237.361 33.24 237.361 33.816C237.361 34.456 237.606 34.968 238.097 35.352C238.609 35.7147 239.302 35.896 240.177 35.896C241.009 35.896 241.755 35.704 242.417 35.32C243.078 34.9147 243.558 34.328 243.857 33.56L244.625 35.864C244.262 36.9733 243.601 37.816 242.641 38.392C241.681 38.968 240.443 39.256 238.929 39.256ZM253.367 39V21.784H258.135V26.648L257.463 25.24C257.975 24.024 258.796 23.1067 259.927 22.488C261.057 21.848 262.433 21.528 264.055 21.528V26.136C263.841 26.1147 263.649 26.104 263.479 26.104C263.308 26.0827 263.127 26.072 262.935 26.072C261.569 26.072 260.46 26.4667 259.607 27.256C258.775 28.024 258.359 29.2293 258.359 30.872V39H253.367Z" fill="white"/>
<path d="M546.27 20.2H548.022V37H546.27V20.2ZM535.758 37H533.982V20.2H535.758V37ZM546.438 29.248H535.566V27.688H546.438V29.248ZM558.282 37.12C557.066 37.12 555.97 36.848 554.994 36.304C554.034 35.744 553.274 34.984 552.714 34.024C552.154 33.048 551.874 31.936 551.874 30.688C551.874 29.424 552.154 28.312 552.714 27.352C553.274 26.392 554.034 25.64 554.994 25.096C555.954 24.552 557.05 24.28 558.282 24.28C559.53 24.28 560.634 24.552 561.594 25.096C562.57 25.64 563.33 26.392 563.874 27.352C564.434 28.312 564.714 29.424 564.714 30.688C564.714 31.936 564.434 33.048 563.874 34.024C563.33 34.984 562.57 35.744 561.594 36.304C560.618 36.848 559.514 37.12 558.282 37.12ZM558.282 35.608C559.194 35.608 560.002 35.408 560.706 35.008C561.41 34.592 561.962 34.016 562.362 33.28C562.778 32.528 562.986 31.664 562.986 30.688C562.986 29.696 562.778 28.832 562.362 28.096C561.962 27.36 561.41 26.792 560.706 26.392C560.002 25.976 559.202 25.768 558.306 25.768C557.41 25.768 556.61 25.976 555.906 26.392C555.202 26.792 554.642 27.36 554.226 28.096C553.81 28.832 553.602 29.696 553.602 30.688C553.602 31.664 553.81 32.528 554.226 33.28C554.642 34.016 555.202 34.592 555.906 35.008C556.61 35.408 557.402 35.608 558.282 35.608ZM583.936 24.28C584.96 24.28 585.848 24.48 586.6 24.88C587.368 25.264 587.96 25.856 588.376 26.656C588.808 27.456 589.024 28.464 589.024 29.68V37H587.32V29.848C587.32 28.52 587 27.52 586.36 26.848C585.736 26.16 584.848 25.816 583.696 25.816C582.832 25.816 582.08 26 581.44 26.368C580.816 26.72 580.328 27.24 579.976 27.928C579.64 28.6 579.472 29.416 579.472 30.376V37H577.768V29.848C577.768 28.52 577.448 27.52 576.808 26.848C576.168 26.16 575.272 25.816 574.12 25.816C573.272 25.816 572.528 26 571.888 26.368C571.248 26.72 570.752 27.24 570.4 27.928C570.064 28.6 569.896 29.416 569.896 30.376V37H568.192V24.4H569.824V27.808L569.56 27.208C569.944 26.296 570.56 25.584 571.408 25.072C572.272 24.544 573.288 24.28 574.456 24.28C575.688 24.28 576.736 24.592 577.6 25.216C578.464 25.824 579.024 26.744 579.28 27.976L578.608 27.712C578.976 26.688 579.624 25.864 580.552 25.24C581.496 24.6 582.624 24.28 583.936 24.28ZM598.998 37.12C597.686 37.12 596.534 36.848 595.542 36.304C594.55 35.744 593.774 34.984 593.214 34.024C592.654 33.048 592.374 31.936 592.374 30.688C592.374 29.44 592.638 28.336 593.166 27.376C593.71 26.416 594.446 25.664 595.374 25.12C596.318 24.56 597.374 24.28 598.542 24.28C599.726 24.28 600.774 24.552 601.686 25.096C602.614 25.624 603.342 26.376 603.87 27.352C604.398 28.312 604.662 29.424 604.662 30.688C604.662 30.768 604.654 30.856 604.638 30.952C604.638 31.032 604.638 31.12 604.638 31.216H593.67V29.944H603.726L603.054 30.448C603.054 29.536 602.854 28.728 602.454 28.024C602.07 27.304 601.542 26.744 600.87 26.344C600.198 25.944 599.422 25.744 598.542 25.744C597.678 25.744 596.902 25.944 596.214 26.344C595.526 26.744 594.99 27.304 594.606 28.024C594.222 28.744 594.03 29.568 594.03 30.496V30.76C594.03 31.72 594.238 32.568 594.654 33.304C595.086 34.024 595.678 34.592 596.43 35.008C597.198 35.408 598.07 35.608 599.046 35.608C599.814 35.608 600.526 35.472 601.182 35.2C601.854 34.928 602.43 34.512 602.91 33.952L603.87 35.056C603.31 35.728 602.606 36.24 601.758 36.592C600.926 36.944 600.006 37.12 598.998 37.12Z" fill="white"/>
<path d="M660.746 28.336H669.626V29.872H660.746V28.336ZM660.938 37H659.162V20.2H670.682V21.736H660.938V37ZM678.703 37.12C677.487 37.12 676.391 36.848 675.415 36.304C674.455 35.744 673.695 34.984 673.135 34.024C672.575 33.048 672.295 31.936 672.295 30.688C672.295 29.424 672.575 28.312 673.135 27.352C673.695 26.392 674.455 25.64 675.415 25.096C676.375 24.552 677.471 24.28 678.703 24.28C679.951 24.28 681.055 24.552 682.015 25.096C682.991 25.64 683.751 26.392 684.295 27.352C684.855 28.312 685.135 29.424 685.135 30.688C685.135 31.936 684.855 33.048 684.295 34.024C683.751 34.984 682.991 35.744 682.015 36.304C681.039 36.848 679.935 37.12 678.703 37.12ZM678.703 35.608C679.615 35.608 680.423 35.408 681.127 35.008C681.831 34.592 682.383 34.016 682.783 33.28C683.199 32.528 683.407 31.664 683.407 30.688C683.407 29.696 683.199 28.832 682.783 28.096C682.383 27.36 681.831 26.792 681.127 26.392C680.423 25.976 679.623 25.768 678.727 25.768C677.831 25.768 677.031 25.976 676.327 26.392C675.623 26.792 675.063 27.36 674.647 28.096C674.231 28.832 674.023 29.696 674.023 30.688C674.023 31.664 674.231 32.528 674.647 33.28C675.063 34.016 675.623 34.592 676.327 35.008C677.031 35.408 677.823 35.608 678.703 35.608ZM688.614 37V24.4H690.246V27.832L690.078 27.232C690.43 26.272 691.022 25.544 691.854 25.048C692.686 24.536 693.718 24.28 694.95 24.28V25.936C694.886 25.936 694.822 25.936 694.758 25.936C694.694 25.92 694.63 25.912 694.566 25.912C693.238 25.912 692.198 26.32 691.446 27.136C690.694 27.936 690.318 29.08 690.318 30.568V37H688.614ZM717.176 20.2H718.928V37H717.176V20.2ZM706.664 37H704.888V20.2H706.664V37ZM717.344 29.248H706.472V27.688H717.344V29.248ZM724.052 37V24.4H725.756V37H724.052ZM724.916 21.616C724.564 21.616 724.268 21.496 724.028 21.256C723.788 21.016 723.668 20.728 723.668 20.392C723.668 20.056 723.788 19.776 724.028 19.552C724.268 19.312 724.564 19.192 724.916 19.192C725.268 19.192 725.564 19.304 725.804 19.528C726.044 19.752 726.164 20.032 726.164 20.368C726.164 20.72 726.044 21.016 725.804 21.256C725.58 21.496 725.284 21.616 724.916 21.616ZM746.241 24.28C747.265 24.28 748.153 24.48 748.905 24.88C749.673 25.264 750.265 25.856 750.681 26.656C751.113 27.456 751.329 28.464 751.329 29.68V37H749.625V29.848C749.625 28.52 749.305 27.52 748.665 26.848C748.041 26.16 747.153 25.816 746.001 25.816C745.137 25.816 744.385 26 743.745 26.368C743.121 26.72 742.633 27.24 742.281 27.928C741.945 28.6 741.777 29.416 741.777 30.376V37H740.073V29.848C740.073 28.52 739.753 27.52 739.113 26.848C738.473 26.16 737.577 25.816 736.425 25.816C735.577 25.816 734.833 26 734.193 26.368C733.553 26.72 733.057 27.24 732.705 27.928C732.369 28.6 732.201 29.416 732.201 30.376V37H730.497V24.4H732.129V27.808L731.865 27.208C732.249 26.296 732.865 25.584 733.713 25.072C734.577 24.544 735.593 24.28 736.761 24.28C737.993 24.28 739.041 24.592 739.905 25.216C740.769 25.824 741.329 26.744 741.585 27.976L740.913 27.712C741.281 26.688 741.929 25.864 742.857 25.24C743.801 24.6 744.929 24.28 746.241 24.28Z" fill="white"/>
<path d="M808.636 28.336H817.516V29.872H808.636V28.336ZM808.828 37H807.052V20.2H818.572V21.736H808.828V37ZM826.594 37.12C825.378 37.12 824.282 36.848 823.306 36.304C822.346 35.744 821.586 34.984 821.026 34.024C820.466 33.048 820.186 31.936 820.186 30.688C820.186 29.424 820.466 28.312 821.026 27.352C821.586 26.392 822.346 25.64 823.306 25.096C824.266 24.552 825.362 24.28 826.594 24.28C827.842 24.28 828.946 24.552 829.906 25.096C830.882 25.64 831.642 26.392 832.186 27.352C832.746 28.312 833.026 29.424 833.026 30.688C833.026 31.936 832.746 33.048 832.186 34.024C831.642 34.984 830.882 35.744 829.906 36.304C828.93 36.848 827.826 37.12 826.594 37.12ZM826.594 35.608C827.506 35.608 828.314 35.408 829.018 35.008C829.722 34.592 830.274 34.016 830.674 33.28C831.09 32.528 831.298 31.664 831.298 30.688C831.298 29.696 831.09 28.832 830.674 28.096C830.274 27.36 829.722 26.792 829.018 26.392C828.314 25.976 827.514 25.768 826.618 25.768C825.722 25.768 824.922 25.976 824.218 26.392C823.514 26.792 822.954 27.36 822.538 28.096C822.122 28.832 821.914 29.696 821.914 30.688C821.914 31.664 822.122 32.528 822.538 33.28C822.954 34.016 823.514 34.592 824.218 35.008C824.922 35.408 825.714 35.608 826.594 35.608ZM836.505 37V24.4H838.137V27.832L837.969 27.232C838.321 26.272 838.913 25.544 839.745 25.048C840.577 24.536 841.609 24.28 842.841 24.28V25.936C842.777 25.936 842.713 25.936 842.649 25.936C842.585 25.92 842.521 25.912 842.457 25.912C841.129 25.912 840.089 26.32 839.337 27.136C838.585 27.936 838.209 29.08 838.209 30.568V37H836.505ZM865.067 20.2H866.819V37H865.067V20.2ZM854.555 37H852.779V20.2H854.555V37ZM865.235 29.248H854.363V27.688H865.235V29.248ZM877.294 37.12C875.982 37.12 874.83 36.848 873.838 36.304C872.846 35.744 872.07 34.984 871.51 34.024C870.95 33.048 870.67 31.936 870.67 30.688C870.67 29.44 870.934 28.336 871.462 27.376C872.006 26.416 872.742 25.664 873.67 25.12C874.614 24.56 875.67 24.28 876.838 24.28C878.022 24.28 879.07 24.552 879.982 25.096C880.91 25.624 881.638 26.376 882.166 27.352C882.694 28.312 882.958 29.424 882.958 30.688C882.958 30.768 882.95 30.856 882.934 30.952C882.934 31.032 882.934 31.12 882.934 31.216H871.966V29.944H882.022L881.35 30.448C881.35 29.536 881.15 28.728 880.75 28.024C880.366 27.304 879.838 26.744 879.166 26.344C878.494 25.944 877.718 25.744 876.838 25.744C875.974 25.744 875.198 25.944 874.51 26.344C873.822 26.744 873.286 27.304 872.902 28.024C872.518 28.744 872.326 29.568 872.326 30.496V30.76C872.326 31.72 872.534 32.568 872.95 33.304C873.382 34.024 873.974 34.592 874.726 35.008C875.494 35.408 876.366 35.608 877.342 35.608C878.11 35.608 878.822 35.472 879.478 35.2C880.15 34.928 880.726 34.512 881.206 33.952L882.166 35.056C881.606 35.728 880.902 36.24 880.054 36.592C879.222 36.944 878.302 37.12 877.294 37.12ZM886.427 37V24.4H888.059V27.832L887.891 27.232C888.243 26.272 888.835 25.544 889.667 25.048C890.499 24.536 891.531 24.28 892.763 24.28V25.936C892.699 25.936 892.635 25.936 892.571 25.936C892.507 25.92 892.443 25.912 892.379 25.912C891.051 25.912 890.011 26.32 889.259 27.136C888.507 27.936 888.131 29.08 888.131 30.568V37H886.427Z" fill="white"/>
<path d="M951.602 37.144C950.354 37.144 949.154 36.944 948.002 36.544C946.866 36.128 945.986 35.6 945.362 34.96L946.058 33.592C946.65 34.168 947.442 34.656 948.434 35.056C949.442 35.44 950.498 35.632 951.602 35.632C952.658 35.632 953.514 35.504 954.17 35.248C954.842 34.976 955.33 34.616 955.634 34.168C955.954 33.72 956.114 33.224 956.114 32.68C956.114 32.024 955.922 31.496 955.538 31.096C955.17 30.696 954.682 30.384 954.074 30.16C953.466 29.92 952.794 29.712 952.058 29.536C951.322 29.36 950.586 29.176 949.85 28.984C949.114 28.776 948.434 28.504 947.81 28.168C947.202 27.832 946.706 27.392 946.322 26.848C945.954 26.288 945.77 25.56 945.77 24.664C945.77 23.832 945.986 23.072 946.418 22.384C946.866 21.68 947.546 21.12 948.458 20.704C949.37 20.272 950.538 20.056 951.962 20.056C952.906 20.056 953.842 20.192 954.77 20.464C955.698 20.72 956.498 21.08 957.17 21.544L956.57 22.96C955.85 22.48 955.082 22.128 954.266 21.904C953.466 21.68 952.69 21.568 951.938 21.568C950.93 21.568 950.098 21.704 949.442 21.976C948.786 22.248 948.298 22.616 947.978 23.08C947.674 23.528 947.522 24.04 947.522 24.616C947.522 25.272 947.706 25.8 948.074 26.2C948.458 26.6 948.954 26.912 949.562 27.136C950.186 27.36 950.866 27.56 951.602 27.736C952.338 27.912 953.066 28.104 953.786 28.312C954.522 28.52 955.194 28.792 955.802 29.128C956.426 29.448 956.922 29.88 957.29 30.424C957.674 30.968 957.866 31.68 957.866 32.56C957.866 33.376 957.642 34.136 957.194 34.84C956.746 35.528 956.058 36.088 955.13 36.52C954.218 36.936 953.042 37.144 951.602 37.144ZM967.88 37.12C966.792 37.12 965.808 36.872 964.928 36.376C964.048 35.864 963.344 35.136 962.816 34.192C962.304 33.232 962.048 32.064 962.048 30.688C962.048 29.312 962.304 28.152 962.816 27.208C963.328 26.248 964.024 25.52 964.904 25.024C965.784 24.528 966.776 24.28 967.88 24.28C969.08 24.28 970.152 24.552 971.096 25.096C972.056 25.624 972.808 26.376 973.352 27.352C973.896 28.312 974.168 29.424 974.168 30.688C974.168 31.968 973.896 33.088 973.352 34.048C972.808 35.008 972.056 35.76 971.096 36.304C970.152 36.848 969.08 37.12 967.88 37.12ZM961.376 41.656V24.4H963.008V28.192L962.84 30.712L963.08 33.256V41.656H961.376ZM967.76 35.608C968.656 35.608 969.456 35.408 970.16 35.008C970.864 34.592 971.424 34.016 971.84 33.28C972.256 32.528 972.464 31.664 972.464 30.688C972.464 29.712 972.256 28.856 971.84 28.12C971.424 27.384 970.864 26.808 970.16 26.392C969.456 25.976 968.656 25.768 967.76 25.768C966.864 25.768 966.056 25.976 965.336 26.392C964.632 26.808 964.072 27.384 963.656 28.12C963.256 28.856 963.056 29.712 963.056 30.688C963.056 31.664 963.256 32.528 963.656 33.28C964.072 34.016 964.632 34.592 965.336 35.008C966.056 35.408 966.864 35.608 967.76 35.608ZM982.778 37.12C981.562 37.12 980.466 36.848 979.49 36.304C978.53 35.744 977.77 34.984 977.21 34.024C976.65 33.048 976.37 31.936 976.37 30.688C976.37 29.424 976.65 28.312 977.21 27.352C977.77 26.392 978.53 25.64 979.49 25.096C980.45 24.552 981.546 24.28 982.778 24.28C984.026 24.28 985.13 24.552 986.09 25.096C987.066 25.64 987.826 26.392 988.37 27.352C988.93 28.312 989.21 29.424 989.21 30.688C989.21 31.936 988.93 33.048 988.37 34.024C987.826 34.984 987.066 35.744 986.09 36.304C985.114 36.848 984.01 37.12 982.778 37.12ZM982.778 35.608C983.69 35.608 984.498 35.408 985.202 35.008C985.906 34.592 986.458 34.016 986.858 33.28C987.274 32.528 987.482 31.664 987.482 30.688C987.482 29.696 987.274 28.832 986.858 28.096C986.458 27.36 985.906 26.792 985.202 26.392C984.498 25.976 983.698 25.768 982.802 25.768C981.906 25.768 981.106 25.976 980.402 26.392C979.698 26.792 979.138 27.36 978.722 28.096C978.306 28.832 978.098 29.696 978.098 30.688C978.098 31.664 978.306 32.528 978.722 33.28C979.138 34.016 979.698 34.592 980.402 35.008C981.106 35.408 981.898 35.608 982.778 35.608ZM992.689 37V24.4H994.321V27.832L994.153 27.232C994.505 26.272 995.097 25.544 995.929 25.048C996.761 24.536 997.793 24.28 999.025 24.28V25.936C998.961 25.936 998.897 25.936 998.833 25.936C998.769 25.92 998.705 25.912 998.641 25.912C997.312 25.912 996.273 26.32 995.521 27.136C994.769 27.936 994.393 29.08 994.393 30.568V37H992.689ZM1006.66 37.12C1005.47 37.12 1004.56 36.8 1003.92 36.16C1003.28 35.52 1002.96 34.616 1002.96 33.448V21.616H1004.66V33.352C1004.66 34.088 1004.85 34.656 1005.22 35.056C1005.6 35.456 1006.14 35.656 1006.85 35.656C1007.6 35.656 1008.22 35.44 1008.72 35.008L1009.32 36.232C1008.98 36.536 1008.58 36.76 1008.1 36.904C1007.63 37.048 1007.15 37.12 1006.66 37.12ZM1000.7 25.816V24.4H1008.5V25.816H1000.7ZM1015.81 37.12C1014.77 37.12 1013.78 36.976 1012.85 36.688C1011.93 36.384 1011.2 36.008 1010.67 35.56L1011.44 34.216C1011.95 34.6 1012.61 34.936 1013.41 35.224C1014.21 35.496 1015.05 35.632 1015.93 35.632C1017.13 35.632 1017.99 35.448 1018.52 35.08C1019.05 34.696 1019.31 34.192 1019.31 33.568C1019.31 33.104 1019.16 32.744 1018.85 32.488C1018.57 32.216 1018.18 32.016 1017.7 31.888C1017.22 31.744 1016.69 31.624 1016.09 31.528C1015.5 31.432 1014.91 31.32 1014.32 31.192C1013.74 31.064 1013.21 30.88 1012.73 30.64C1012.25 30.384 1011.86 30.04 1011.56 29.608C1011.27 29.176 1011.13 28.6 1011.13 27.88C1011.13 27.192 1011.32 26.576 1011.7 26.032C1012.09 25.488 1012.65 25.064 1013.38 24.76C1014.13 24.44 1015.05 24.28 1016.12 24.28C1016.93 24.28 1017.75 24.392 1018.57 24.616C1019.38 24.824 1020.05 25.104 1020.58 25.456L1019.84 26.824C1019.28 26.44 1018.68 26.168 1018.04 26.008C1017.4 25.832 1016.76 25.744 1016.12 25.744C1014.98 25.744 1014.14 25.944 1013.6 26.344C1013.07 26.728 1012.81 27.224 1012.81 27.832C1012.81 28.312 1012.95 28.688 1013.24 28.96C1013.54 29.232 1013.93 29.448 1014.41 29.608C1014.91 29.752 1015.45 29.872 1016.02 29.968C1016.61 30.064 1017.2 30.184 1017.77 30.328C1018.37 30.456 1018.9 30.64 1019.38 30.88C1019.88 31.104 1020.27 31.432 1020.56 31.864C1020.86 32.28 1021.01 32.832 1021.01 33.52C1021.01 34.256 1020.81 34.896 1020.39 35.44C1019.99 35.968 1019.4 36.384 1018.61 36.688C1017.85 36.976 1016.91 37.12 1015.81 37.12Z" fill="white"/>
<path d="M1072.16 37L1079.84 20.2H1081.59L1089.27 37H1087.4L1080.35 21.232H1081.07L1074.01 37H1072.16ZM1075.19 32.512L1075.71 31.072H1085.48L1086.01 32.512H1075.19ZM1096.81 37.12C1095.56 37.12 1094.44 36.848 1093.45 36.304C1092.47 35.744 1091.7 34.984 1091.14 34.024C1090.58 33.048 1090.3 31.936 1090.3 30.688C1090.3 29.424 1090.58 28.312 1091.14 27.352C1091.7 26.392 1092.47 25.64 1093.45 25.096C1094.44 24.552 1095.56 24.28 1096.81 24.28C1097.88 24.28 1098.85 24.488 1099.71 24.904C1100.58 25.32 1101.26 25.944 1101.75 26.776L1100.48 27.64C1100.05 27 1099.51 26.528 1098.87 26.224C1098.23 25.92 1097.54 25.768 1096.78 25.768C1095.89 25.768 1095.08 25.976 1094.36 26.392C1093.64 26.792 1093.07 27.36 1092.66 28.096C1092.24 28.832 1092.03 29.696 1092.03 30.688C1092.03 31.68 1092.24 32.544 1092.66 33.28C1093.07 34.016 1093.64 34.592 1094.36 35.008C1095.08 35.408 1095.89 35.608 1096.78 35.608C1097.54 35.608 1098.23 35.456 1098.87 35.152C1099.51 34.848 1100.05 34.384 1100.48 33.76L1101.75 34.624C1101.26 35.44 1100.58 36.064 1099.71 36.496C1098.85 36.912 1097.88 37.12 1096.81 37.12ZM1110.12 37.12C1108.87 37.12 1107.75 36.848 1106.76 36.304C1105.78 35.744 1105.02 34.984 1104.46 34.024C1103.9 33.048 1103.62 31.936 1103.62 30.688C1103.62 29.424 1103.9 28.312 1104.46 27.352C1105.02 26.392 1105.78 25.64 1106.76 25.096C1107.75 24.552 1108.87 24.28 1110.12 24.28C1111.19 24.28 1112.16 24.488 1113.02 24.904C1113.89 25.32 1114.57 25.944 1115.06 26.776L1113.79 27.64C1113.36 27 1112.82 26.528 1112.18 26.224C1111.54 25.92 1110.85 25.768 1110.1 25.768C1109.2 25.768 1108.39 25.976 1107.67 26.392C1106.95 26.792 1106.38 27.36 1105.97 28.096C1105.55 28.832 1105.34 29.696 1105.34 30.688C1105.34 31.68 1105.55 32.544 1105.97 33.28C1106.38 34.016 1106.95 34.592 1107.67 35.008C1108.39 35.408 1109.2 35.608 1110.1 35.608C1110.85 35.608 1111.54 35.456 1112.18 35.152C1112.82 34.848 1113.36 34.384 1113.79 33.76L1115.06 34.624C1114.57 35.44 1113.89 36.064 1113.02 36.496C1112.16 36.912 1111.19 37.12 1110.12 37.12ZM1123.55 37.12C1122.24 37.12 1121.09 36.848 1120.1 36.304C1119.1 35.744 1118.33 34.984 1117.77 34.024C1117.21 33.048 1116.93 31.936 1116.93 30.688C1116.93 29.44 1117.19 28.336 1117.72 27.376C1118.26 26.416 1119 25.664 1119.93 25.12C1120.87 24.56 1121.93 24.28 1123.1 24.28C1124.28 24.28 1125.33 24.552 1126.24 25.096C1127.17 25.624 1127.9 26.376 1128.42 27.352C1128.95 28.312 1129.22 29.424 1129.22 30.688C1129.22 30.768 1129.21 30.856 1129.19 30.952C1129.19 31.032 1129.19 31.12 1129.19 31.216H1118.22V29.944H1128.28L1127.61 30.448C1127.61 29.536 1127.41 28.728 1127.01 28.024C1126.62 27.304 1126.1 26.744 1125.42 26.344C1124.75 25.944 1123.98 25.744 1123.1 25.744C1122.23 25.744 1121.46 25.944 1120.77 26.344C1120.08 26.744 1119.54 27.304 1119.16 28.024C1118.78 28.744 1118.58 29.568 1118.58 30.496V30.76C1118.58 31.72 1118.79 32.568 1119.21 33.304C1119.64 34.024 1120.23 34.592 1120.98 35.008C1121.75 35.408 1122.62 35.608 1123.6 35.608C1124.37 35.608 1125.08 35.472 1125.74 35.2C1126.41 34.928 1126.98 34.512 1127.46 33.952L1128.42 35.056C1127.86 35.728 1127.16 36.24 1126.31 36.592C1125.48 36.944 1124.56 37.12 1123.55 37.12ZM1136.07 37.12C1135.03 37.12 1134.04 36.976 1133.12 36.688C1132.19 36.384 1131.46 36.008 1130.93 35.56L1131.7 34.216C1132.21 34.6 1132.87 34.936 1133.67 35.224C1134.47 35.496 1135.31 35.632 1136.19 35.632C1137.39 35.632 1138.25 35.448 1138.78 35.08C1139.31 34.696 1139.57 34.192 1139.57 33.568C1139.57 33.104 1139.42 32.744 1139.12 32.488C1138.83 32.216 1138.44 32.016 1137.96 31.888C1137.48 31.744 1136.95 31.624 1136.36 31.528C1135.76 31.432 1135.17 31.32 1134.58 31.192C1134 31.064 1133.48 30.88 1133 30.64C1132.52 30.384 1132.12 30.04 1131.82 29.608C1131.53 29.176 1131.39 28.6 1131.39 27.88C1131.39 27.192 1131.58 26.576 1131.96 26.032C1132.35 25.488 1132.91 25.064 1133.64 24.76C1134.4 24.44 1135.31 24.28 1136.38 24.28C1137.2 24.28 1138.01 24.392 1138.83 24.616C1139.64 24.824 1140.32 25.104 1140.84 25.456L1140.1 26.824C1139.54 26.44 1138.94 26.168 1138.3 26.008C1137.66 25.832 1137.02 25.744 1136.38 25.744C1135.24 25.744 1134.4 25.944 1133.86 26.344C1133.33 26.728 1133.07 27.224 1133.07 27.832C1133.07 28.312 1133.21 28.688 1133.5 28.96C1133.8 29.232 1134.2 29.448 1134.68 29.608C1135.17 29.752 1135.71 29.872 1136.28 29.968C1136.88 30.064 1137.46 30.184 1138.04 30.328C1138.63 30.456 1139.16 30.64 1139.64 30.88C1140.14 31.104 1140.53 31.432 1140.82 31.864C1141.12 32.28 1141.28 32.832 1141.28 33.52C1141.28 34.256 1141.07 34.896 1140.65 35.44C1140.25 35.968 1139.66 36.384 1138.88 36.688C1138.11 36.976 1137.17 37.12 1136.07 37.12ZM1147.79 37.12C1146.75 37.12 1145.76 36.976 1144.84 36.688C1143.91 36.384 1143.18 36.008 1142.65 35.56L1143.42 34.216C1143.93 34.6 1144.59 34.936 1145.39 35.224C1146.19 35.496 1147.03 35.632 1147.91 35.632C1149.11 35.632 1149.97 35.448 1150.5 35.08C1151.03 34.696 1151.29 34.192 1151.29 33.568C1151.29 33.104 1151.14 32.744 1150.84 32.488C1150.55 32.216 1150.16 32.016 1149.68 31.888C1149.2 31.744 1148.67 31.624 1148.08 31.528C1147.48 31.432 1146.89 31.32 1146.3 31.192C1145.72 31.064 1145.2 30.88 1144.72 30.64C1144.24 30.384 1143.84 30.04 1143.54 29.608C1143.25 29.176 1143.11 28.6 1143.11 27.88C1143.11 27.192 1143.3 26.576 1143.68 26.032C1144.07 25.488 1144.63 25.064 1145.36 24.76C1146.12 24.44 1147.03 24.28 1148.1 24.28C1148.92 24.28 1149.73 24.392 1150.55 24.616C1151.36 24.824 1152.04 25.104 1152.56 25.456L1151.82 26.824C1151.26 26.44 1150.66 26.168 1150.02 26.008C1149.38 25.832 1148.74 25.744 1148.1 25.744C1146.96 25.744 1146.12 25.944 1145.58 26.344C1145.05 26.728 1144.79 27.224 1144.79 27.832C1144.79 28.312 1144.93 28.688 1145.22 28.96C1145.52 29.232 1145.92 29.448 1146.4 29.608C1146.89 29.752 1147.43 29.872 1148 29.968C1148.6 30.064 1149.18 30.184 1149.76 30.328C1150.35 30.456 1150.88 30.64 1151.36 30.88C1151.86 31.104 1152.25 31.432 1152.54 31.864C1152.84 32.28 1153 32.832 1153 33.52C1153 34.256 1152.79 34.896 1152.37 35.44C1151.97 35.968 1151.38 36.384 1150.6 36.688C1149.83 36.976 1148.89 37.12 1147.79 37.12ZM1161.26 37.12C1160.04 37.12 1158.95 36.848 1157.97 36.304C1157.01 35.744 1156.25 34.984 1155.69 34.024C1155.13 33.048 1154.85 31.936 1154.85 30.688C1154.85 29.424 1155.13 28.312 1155.69 27.352C1156.25 26.392 1157.01 25.64 1157.97 25.096C1158.93 24.552 1160.03 24.28 1161.26 24.28C1162.51 24.28 1163.61 24.552 1164.57 25.096C1165.55 25.64 1166.31 26.392 1166.85 27.352C1167.41 28.312 1167.69 29.424 1167.69 30.688C1167.69 31.936 1167.41 33.048 1166.85 34.024C1166.31 34.984 1165.55 35.744 1164.57 36.304C1163.59 36.848 1162.49 37.12 1161.26 37.12ZM1161.26 35.608C1162.17 35.608 1162.98 35.408 1163.68 35.008C1164.39 34.592 1164.94 34.016 1165.34 33.28C1165.75 32.528 1165.96 31.664 1165.96 30.688C1165.96 29.696 1165.75 28.832 1165.34 28.096C1164.94 27.36 1164.39 26.792 1163.68 26.392C1162.98 25.976 1162.18 25.768 1161.28 25.768C1160.39 25.768 1159.59 25.976 1158.88 26.392C1158.18 26.792 1157.62 27.36 1157.2 28.096C1156.79 28.832 1156.58 29.696 1156.58 30.688C1156.58 31.664 1156.79 32.528 1157.2 33.28C1157.62 34.016 1158.18 34.592 1158.88 35.008C1159.59 35.408 1160.38 35.608 1161.26 35.608ZM1171.17 37V24.4H1172.8V27.832L1172.63 27.232C1172.98 26.272 1173.58 25.544 1174.41 25.048C1175.24 24.536 1176.27 24.28 1177.5 24.28V25.936C1177.44 25.936 1177.38 25.936 1177.31 25.936C1177.25 25.92 1177.18 25.912 1177.12 25.912C1175.79 25.912 1174.75 26.32 1174 27.136C1173.25 27.936 1172.87 29.08 1172.87 30.568V37H1171.17ZM1180.61 37V24.4H1182.32V37H1180.61ZM1181.48 21.616C1181.13 21.616 1180.83 21.496 1180.59 21.256C1180.35 21.016 1180.23 20.728 1180.23 20.392C1180.23 20.056 1180.35 19.776 1180.59 19.552C1180.83 19.312 1181.13 19.192 1181.48 19.192C1181.83 19.192 1182.13 19.304 1182.37 19.528C1182.61 19.752 1182.73 20.032 1182.73 20.368C1182.73 20.72 1182.61 21.016 1182.37 21.256C1182.14 21.496 1181.85 21.616 1181.48 21.616ZM1192.41 37.12C1191.1 37.12 1189.95 36.848 1188.96 36.304C1187.96 35.744 1187.19 34.984 1186.63 34.024C1186.07 33.048 1185.79 31.936 1185.79 30.688C1185.79 29.44 1186.05 28.336 1186.58 27.376C1187.12 26.416 1187.86 25.664 1188.79 25.12C1189.73 24.56 1190.79 24.28 1191.96 24.28C1193.14 24.28 1194.19 24.552 1195.1 25.096C1196.03 25.624 1196.76 26.376 1197.28 27.352C1197.81 28.312 1198.08 29.424 1198.08 30.688C1198.08 30.768 1198.07 30.856 1198.05 30.952C1198.05 31.032 1198.05 31.12 1198.05 31.216H1187.08V29.944H1197.14L1196.47 30.448C1196.47 29.536 1196.27 28.728 1195.87 28.024C1195.48 27.304 1194.96 26.744 1194.28 26.344C1193.61 25.944 1192.84 25.744 1191.96 25.744C1191.09 25.744 1190.32 25.944 1189.63 26.344C1188.94 26.744 1188.4 27.304 1188.02 28.024C1187.64 28.744 1187.44 29.568 1187.44 30.496V30.76C1187.44 31.72 1187.65 32.568 1188.07 33.304C1188.5 34.024 1189.09 34.592 1189.84 35.008C1190.61 35.408 1191.48 35.608 1192.46 35.608C1193.23 35.608 1193.94 35.472 1194.6 35.2C1195.27 34.928 1195.84 34.512 1196.32 33.952L1197.28 35.056C1196.72 35.728 1196.02 36.24 1195.17 36.592C1194.34 36.944 1193.42 37.12 1192.41 37.12ZM1204.93 37.12C1203.89 37.12 1202.9 36.976 1201.98 36.688C1201.05 36.384 1200.32 36.008 1199.79 35.56L1200.56 34.216C1201.07 34.6 1201.73 34.936 1202.53 35.224C1203.33 35.496 1204.17 35.632 1205.05 35.632C1206.25 35.632 1207.11 35.448 1207.64 35.08C1208.17 34.696 1208.43 34.192 1208.43 33.568C1208.43 33.104 1208.28 32.744 1207.98 32.488C1207.69 32.216 1207.3 32.016 1206.82 31.888C1206.34 31.744 1205.81 31.624 1205.22 31.528C1204.62 31.432 1204.03 31.32 1203.44 31.192C1202.86 31.064 1202.34 30.88 1201.86 30.64C1201.38 30.384 1200.98 30.04 1200.68 29.608C1200.39 29.176 1200.25 28.6 1200.25 27.88C1200.25 27.192 1200.44 26.576 1200.82 26.032C1201.21 25.488 1201.77 25.064 1202.5 24.76C1203.26 24.44 1204.17 24.28 1205.24 24.28C1206.06 24.28 1206.87 24.392 1207.69 24.616C1208.5 24.824 1209.18 25.104 1209.7 25.456L1208.96 26.824C1208.4 26.44 1207.8 26.168 1207.16 26.008C1206.52 25.832 1205.88 25.744 1205.24 25.744C1204.1 25.744 1203.26 25.944 1202.72 26.344C1202.19 26.728 1201.93 27.224 1201.93 27.832C1201.93 28.312 1202.07 28.688 1202.36 28.96C1202.66 29.232 1203.06 29.448 1203.54 29.608C1204.03 29.752 1204.57 29.872 1205.14 29.968C1205.74 30.064 1206.32 30.184 1206.9 30.328C1207.49 30.456 1208.02 30.64 1208.5 30.88C1209 31.104 1209.39 31.432 1209.68 31.864C1209.98 32.28 1210.14 32.832 1210.14 33.52C1210.14 34.256 1209.93 34.896 1209.51 35.44C1209.11 35.968 1208.52 36.384 1207.74 36.688C1206.97 36.976 1206.03 37.12 1204.93 37.12Z" fill="white"/>
<path d="M1567.67 40V37.3333C1567.67 35.9188 1567.1 34.5623 1566.1 33.5621C1565.1 32.5619 1563.75 32 1562.33 32H1551.67C1550.25 32 1548.9 32.5619 1547.9 33.5621C1546.9 34.5623 1546.33 35.9188 1546.33 37.3333V40" stroke="white" stroke-width="2" stroke-linecap="round" stroke-linejoin="round"/>
<path d="M1557 26.6667C1559.95 26.6667 1562.33 24.2789 1562.33 21.3333C1562.33 18.3878 1559.95 16 1557 16C1554.05 16 1551.67 18.3878 1551.67 21.3333C1551.67 24.2789 1554.05 26.6667 1557 26.6667Z" stroke="white" stroke-width="2" stroke-linecap="round" stroke-linejoin="round"/>
<path d="M1491.67 37.3333C1497.56 37.3333 1502.33 32.5577 1502.33 26.6667C1502.33 20.7756 1497.56 16 1491.67 16C1485.78 16 1481 20.7756 1481 26.6667C1481 32.5577 1485.78 37.3333 1491.67 37.3333Z" stroke="white" stroke-width="2" stroke-linecap="round" stroke-linejoin="round"/>
<path d="M1505 40.0002L1499.2 34.2002" stroke="white" stroke-width="2" stroke-linecap="round" stroke-linejoin="round"/>
<path d="M1637.53 14.829C1636.75 13.9321 1635.82 13.2207 1634.8 12.7353C1633.78 12.2498 1632.68 12 1631.58 12C1630.47 12 1629.38 12.2498 1628.35 12.7353C1627.33 13.2207 1626.4 13.9321 1625.62 14.829L1624 16.6895L1622.38 14.829C1620.8 13.0182 1618.66 12.0009 1616.42 12.0009C1614.19 12.0009 1612.05 13.0182 1610.47 14.829C1608.89 16.6398 1608 19.0958 1608 21.6567C1608 24.2175 1608.89 26.6735 1610.47 28.4843L1612.09 30.3448L1624 44L1635.91 30.3448L1637.53 28.4843C1638.31 27.5878 1638.94 26.5234 1639.36 25.3519C1639.78 24.1804 1640 22.9247 1640 21.6567C1640 20.3886 1639.78 19.1329 1639.36 17.9614C1638.94 16.7899 1638.31 15.7255 1637.53 14.829V14.829Z" stroke="white" stroke-width="2" stroke-linecap="round" stroke-linejoin="round"/>
<path d="M1687 41.3332C1687.74 41.3332 1688.33 40.7362 1688.33 39.9998C1688.33 39.2635 1687.74 38.6665 1687 38.6665C1686.26 38.6665 1685.67 39.2635 1685.67 39.9998C1685.67 40.7362 1686.26 41.3332 1687 41.3332Z" stroke="white" stroke-width="2" stroke-linecap="round" stroke-linejoin="round"/>
<path d="M1701.67 41.3332C1702.4 41.3332 1703 40.7362 1703 39.9998C1703 39.2635 1702.4 38.6665 1701.67 38.6665C1700.93 38.6665 1700.33 39.2635 1700.33 39.9998C1700.33 40.7362 1700.93 41.3332 1701.67 41.3332Z" stroke="white" stroke-width="2" stroke-linecap="round" stroke-linejoin="round"/>
<path d="M1676.33 13.3335H1681.67L1685.24 31.1868C1685.36 31.8007 1685.7 32.3521 1686.18 32.7446C1686.67 33.137 1687.28 33.3455 1687.91 33.3335H1700.87C1701.49 33.3455 1702.1 33.137 1702.59 32.7446C1703.08 32.3521 1703.41 31.8007 1703.53 31.1868L1705.67 20.0002H1683" stroke="white" stroke-width="2" stroke-linecap="round" stroke-linejoin="round"/>
<path d="M1765 41.3332C1772.36 41.3332 1778.33 35.3636 1778.33 27.9998C1778.33 20.636 1772.36 14.6665 1765 14.6665C1757.64 14.6665 1751.67 20.636 1751.67 27.9998C1751.67 35.3636 1757.64 41.3332 1765 41.3332Z" stroke="white" stroke-width="2" stroke-linecap="round" stroke-linejoin="round"/>
<path d="M1751.67 28H1778.33" stroke="white" stroke-width="2" stroke-linecap="round" stroke-linejoin="round"/>
<path d="M1765 14.6665C1768.34 18.3176 1770.23 23.0559 1770.33 27.9998C1770.23 32.9438 1768.34 37.682 1765 41.3332C1761.66 37.682 1759.77 32.9438 1759.67 27.9998C1759.77 23.0559 1761.66 18.3176 1765 14.6665V14.6665Z" stroke="white" stroke-width="2" stroke-linecap="round" stroke-linejoin="round"/>
<path d="M15.1012 45.492C13.1605 45.492 11.3702 45.1367 9.73018 44.426C8.11751 43.688 6.79185 42.6493 5.75318 41.31L9.44318 36.882C10.2358 37.9207 11.0695 38.7133 11.9442 39.26C12.8188 39.7793 13.7618 40.039 14.7732 40.039C17.4792 40.039 18.8322 38.4537 18.8322 35.283V21.63H8.74618V16.3H25.4332V34.914C25.4332 38.4673 24.5585 41.1187 22.8092 42.868C21.0598 44.6173 18.4905 45.492 15.1012 45.492Z" fill="white"/>
<path d="M33.3891 30L28.8091 16H32.1691L36.1491 28.4H34.4691L38.6291 16H41.6291L45.6291 28.4H44.0091L48.0891 16H51.1891L46.6091 30H43.1291L39.5891 19.12H40.5091L36.8691 30H33.3891Z" fill="white"/>
<line x1="29" y1="32.5" x2="51" y2="32.5" stroke="white"/>
</svg>
