<svg width="265" height="56" viewBox="0 0 265 56" fill="none" xmlns="http://www.w3.org/2000/svg">
<rect x="1.5" y="1.5" width="53" height="53" stroke="white" stroke-width="3"/>
<path d="M77.9403 39.384C76.4256 39.384 75.0283 39.1067 73.7483 38.552C72.4896 37.976 71.4549 37.1653 70.6442 36.12L73.5243 32.664C74.1429 33.4747 74.7936 34.0933 75.4763 34.52C76.1589 34.9253 76.8949 35.128 77.6843 35.128C79.7963 35.128 80.8523 33.8907 80.8523 31.416V20.76H72.9803V16.6H86.0043V31.128C86.0043 33.9013 85.3216 35.9707 83.9563 37.336C82.5909 38.7013 80.5856 39.384 77.9403 39.384ZM99.3168 39.256C97.3541 39.256 95.6261 38.872 94.1328 38.104C92.6608 37.336 91.5194 36.2907 90.7088 34.968C89.8981 33.624 89.4928 32.0987 89.4928 30.392C89.4928 28.664 89.8874 27.1387 90.6768 25.816C91.4874 24.472 92.5861 23.4267 93.9728 22.68C95.3594 21.912 96.9274 21.528 98.6768 21.528C100.362 21.528 101.877 21.8907 103.221 22.616C104.586 23.32 105.663 24.344 106.453 25.688C107.242 27.0107 107.637 28.6 107.637 30.456C107.637 30.648 107.626 30.872 107.605 31.128C107.583 31.3627 107.562 31.5867 107.541 31.8H93.5568V28.888H104.917L102.997 29.752C102.997 28.856 102.815 28.0773 102.453 27.416C102.09 26.7547 101.589 26.2427 100.949 25.88C100.309 25.496 99.5621 25.304 98.7088 25.304C97.8554 25.304 97.0981 25.496 96.4368 25.88C95.7968 26.2427 95.2954 26.7653 94.9328 27.448C94.5701 28.1093 94.3888 28.8987 94.3888 29.816V30.584C94.3888 31.5227 94.5914 32.3547 94.9968 33.08C95.4234 33.784 96.0101 34.328 96.7568 34.712C97.5248 35.0747 98.4208 35.256 99.4448 35.256C100.362 35.256 101.162 35.1173 101.845 34.84C102.549 34.5627 103.189 34.1467 103.765 33.592L106.421 36.472C105.631 37.368 104.639 38.0613 103.445 38.552C102.25 39.0213 100.874 39.256 99.3168 39.256ZM121.052 39V35.64L120.732 34.904V28.888C120.732 27.8213 120.401 26.9893 119.74 26.392C119.1 25.7947 118.108 25.496 116.764 25.496C115.846 25.496 114.94 25.6453 114.044 25.944C113.169 26.2213 112.422 26.6053 111.804 27.096L110.012 23.608C110.95 22.9467 112.081 22.4347 113.404 22.072C114.726 21.7093 116.07 21.528 117.436 21.528C120.06 21.528 122.097 22.1467 123.548 23.384C124.998 24.6213 125.724 26.552 125.724 29.176V39H121.052ZM115.804 39.256C114.46 39.256 113.308 39.032 112.348 38.584C111.388 38.1147 110.652 37.4853 110.14 36.696C109.628 35.9067 109.372 35.0213 109.372 34.04C109.372 33.016 109.617 32.12 110.108 31.352C110.62 30.584 111.42 29.9867 112.508 29.56C113.596 29.112 115.014 28.888 116.764 28.888H121.34V31.8H117.308C116.134 31.8 115.324 31.992 114.876 32.376C114.449 32.76 114.236 33.24 114.236 33.816C114.236 34.456 114.481 34.968 114.972 35.352C115.484 35.7147 116.177 35.896 117.052 35.896C117.884 35.896 118.63 35.704 119.292 35.32C119.953 34.9147 120.433 34.328 120.732 33.56L121.5 35.864C121.137 36.9733 120.476 37.816 119.516 38.392C118.556 38.968 117.318 39.256 115.804 39.256ZM140.706 21.528C142.071 21.528 143.287 21.8053 144.354 22.36C145.442 22.8933 146.295 23.7253 146.914 24.856C147.532 25.9653 147.842 27.3947 147.842 29.144V39H142.85V29.912C142.85 28.5253 142.54 27.5013 141.922 26.84C141.324 26.1787 140.471 25.848 139.362 25.848C138.572 25.848 137.858 26.0187 137.218 26.36C136.599 26.68 136.108 27.1813 135.746 27.864C135.404 28.5467 135.234 29.4213 135.234 30.488V39H130.242V21.784H135.01V26.552L134.114 25.112C134.732 23.96 135.618 23.0747 136.77 22.456C137.922 21.8373 139.234 21.528 140.706 21.528ZM158.159 39.256C156.687 39.256 155.268 39.0853 153.903 38.744C152.559 38.3813 151.492 37.9333 150.703 37.4L152.367 33.816C153.156 34.3067 154.084 34.712 155.151 35.032C156.239 35.3307 157.305 35.48 158.351 35.48C159.503 35.48 160.313 35.3413 160.783 35.064C161.273 34.7867 161.519 34.4027 161.519 33.912C161.519 33.5067 161.327 33.208 160.943 33.016C160.58 32.8027 160.089 32.6427 159.47 32.536C158.852 32.4293 158.169 32.3227 157.423 32.216C156.697 32.1093 155.961 31.9707 155.215 31.8C154.468 31.608 153.785 31.3307 153.167 30.968C152.548 30.6053 152.047 30.1147 151.663 29.496C151.3 28.8773 151.118 28.0773 151.118 27.096C151.118 26.008 151.428 25.048 152.047 24.216C152.687 23.384 153.604 22.7333 154.799 22.264C155.993 21.7733 157.423 21.528 159.087 21.528C160.26 21.528 161.455 21.656 162.671 21.912C163.887 22.168 164.9 22.5413 165.711 23.032L164.047 26.584C163.215 26.0933 162.372 25.7627 161.519 25.592C160.687 25.4 159.876 25.304 159.087 25.304C157.977 25.304 157.167 25.4533 156.655 25.752C156.143 26.0507 155.887 26.4347 155.887 26.904C155.887 27.3307 156.068 27.6507 156.431 27.864C156.815 28.0773 157.316 28.248 157.935 28.376C158.553 28.504 159.225 28.6213 159.951 28.728C160.697 28.8133 161.444 28.952 162.191 29.144C162.937 29.336 163.609 29.6133 164.207 29.976C164.825 30.3173 165.327 30.7973 165.711 31.416C166.095 32.0133 166.287 32.8027 166.287 33.784C166.287 34.8507 165.967 35.8 165.327 36.632C164.687 37.4427 163.759 38.0827 162.543 38.552C161.348 39.0213 159.887 39.256 158.159 39.256ZM184.157 39L176.829 16.6H182.205L188.573 36.44H185.885L192.541 16.6H197.341L203.741 36.44H201.149L207.677 16.6H212.637L205.309 39H199.741L194.077 21.592H195.549L189.725 39H184.157ZM222.442 39.256C220.479 39.256 218.751 38.872 217.258 38.104C215.786 37.336 214.644 36.2907 213.834 34.968C213.023 33.624 212.618 32.0987 212.618 30.392C212.618 28.664 213.012 27.1387 213.802 25.816C214.612 24.472 215.711 23.4267 217.098 22.68C218.484 21.912 220.052 21.528 221.802 21.528C223.487 21.528 225.002 21.8907 226.346 22.616C227.711 23.32 228.788 24.344 229.578 25.688C230.367 27.0107 230.762 28.6 230.762 30.456C230.762 30.648 230.751 30.872 230.73 31.128C230.708 31.3627 230.687 31.5867 230.666 31.8H216.682V28.888H228.042L226.122 29.752C226.122 28.856 225.94 28.0773 225.578 27.416C225.215 26.7547 224.714 26.2427 224.074 25.88C223.434 25.496 222.687 25.304 221.834 25.304C220.98 25.304 220.223 25.496 219.562 25.88C218.922 26.2427 218.42 26.7653 218.058 27.448C217.695 28.1093 217.514 28.8987 217.514 29.816V30.584C217.514 31.5227 217.716 32.3547 218.122 33.08C218.548 33.784 219.135 34.328 219.882 34.712C220.65 35.0747 221.546 35.256 222.57 35.256C223.487 35.256 224.287 35.1173 224.97 34.84C225.674 34.5627 226.314 34.1467 226.89 33.592L229.546 36.472C228.756 37.368 227.764 38.0613 226.57 38.552C225.375 39.0213 223.999 39.256 222.442 39.256ZM244.177 39V35.64L243.857 34.904V28.888C243.857 27.8213 243.526 26.9893 242.865 26.392C242.225 25.7947 241.233 25.496 239.889 25.496C238.971 25.496 238.065 25.6453 237.169 25.944C236.294 26.2213 235.547 26.6053 234.929 27.096L233.137 23.608C234.075 22.9467 235.206 22.4347 236.529 22.072C237.851 21.7093 239.195 21.528 240.561 21.528C243.185 21.528 245.222 22.1467 246.673 23.384C248.123 24.6213 248.849 26.552 248.849 29.176V39H244.177ZM238.929 39.256C237.585 39.256 236.433 39.032 235.473 38.584C234.513 38.1147 233.777 37.4853 233.265 36.696C232.753 35.9067 232.497 35.0213 232.497 34.04C232.497 33.016 232.742 32.12 233.233 31.352C233.745 30.584 234.545 29.9867 235.633 29.56C236.721 29.112 238.139 28.888 239.889 28.888H244.465V31.8H240.433C239.259 31.8 238.449 31.992 238.001 32.376C237.574 32.76 237.361 33.24 237.361 33.816C237.361 34.456 237.606 34.968 238.097 35.352C238.609 35.7147 239.302 35.896 240.177 35.896C241.009 35.896 241.755 35.704 242.417 35.32C243.078 34.9147 243.558 34.328 243.857 33.56L244.625 35.864C244.262 36.9733 243.601 37.816 242.641 38.392C241.681 38.968 240.443 39.256 238.929 39.256ZM253.367 39V21.784H258.135V26.648L257.463 25.24C257.975 24.024 258.796 23.1067 259.927 22.488C261.057 21.848 262.433 21.528 264.055 21.528V26.136C263.841 26.1147 263.649 26.104 263.479 26.104C263.308 26.0827 263.127 26.072 262.935 26.072C261.569 26.072 260.46 26.4667 259.607 27.256C258.775 28.024 258.359 29.2293 258.359 30.872V39H253.367Z" fill="white"/>
</svg>
